<?xml version="1.0" encoding="UTF-8"?>
<svg id="Layer_1" data-name="Layer 1" xmlns="http://www.w3.org/2000/svg" viewBox="0 0 1080 1080">
  <defs>
    <style>
      .cls-1 {
        fill: #e52e40;
      }
    </style>
  </defs>
  <path class="cls-1" d="M502.01,250.29c-76.17,12.63-130.25,91.47-113.05,165.36,7.83,33.62,27.08,61.09,52.06,83.47,34.72,31.16,71.52,59.99,107.48,89.77,33.6,27.81,66.97,55.95,91.16,92.91,40.9,62.45,21.02,132.81-46.39,164.99-35.54,16.96-72.94,20.7-111.23,13.11-45.64-9.05-75.76-40.58-82.45-85.34-4.87-32.57,4.18-62.18,26.13-85.71,19-20.39,41.84-37.22,62.96-55.59,5.94-5.18,12.21-10.07,17.76-15.64,5.18-5.18,5.81-11.73,.34-16.93-16.2-15.45-32.82-30.46-50.75-47.03,3.87,45.32,1.12,55.93-23.35,93.74-7.32,11.31-14.72,22.55-21.87,33.94-32.48,51.48-31.68,103.95-3.55,156.6,48.58,90.96,171.17,103.49,233.09,22.11,42.16-55.35,44.59-117.09,13.89-179.08-10.1-20.41-24.6-38.68-37.12-57.88-25.84-39.58-25.81-73.47,.8-112.54,9.37-13.75,19.92-26.64,29.7-40.07,19.95-27.34,29.12-57.88,25.37-91.64-9.56-86.88-84.32-142.9-170.98-128.55Zm134.17,138.86c0,53.74-47.39,97.31-105.83,97.31s-105.83-43.57-105.83-97.31,47.39-97.31,105.83-97.31,105.83,43.57,105.83,97.31Z"/>
  <path class="cls-1" d="M675.3,269.41c-10.45,0-18.95-8.2-18.95-18.28s8.5-18.28,18.95-18.28,18.95,8.2,18.95,18.28-8.5,18.28-18.95,18.28Zm0-35.44c-9.81,0-17.78,7.7-17.78,17.16s7.98,17.16,17.78,17.16,17.78-7.7,17.78-17.16-7.98-17.16-17.78-17.16Z"/>
  <path class="cls-1" d="M670,242.54h5.39c3.75,0,6.21,1.37,6.21,4.99s-2.46,5.22-6.21,5.22h-4.06v8.66h-1.33v-18.87Zm5.05,9.09c3.34,0,5.19-1.33,5.19-4.11s-1.85-3.87-5.19-3.87h-3.72v7.98h3.72Zm1.31,.34l5.6,9.44h-1.53l-5.34-9.05,1.27-.38Z"/>
</svg>