<?xml version="1.0" standalone="no"?>
<!DOCTYPE svg PUBLIC "-//W3C//DTD SVG 20010904//EN"
 "http://www.w3.org/TR/2001/REC-SVG-20010904/DTD/svg10.dtd">
<svg version="1.0" xmlns="http://www.w3.org/2000/svg"
 width="300.000000pt" height="300.000000pt" viewBox="0 0 300.000000 300.000000"
 preserveAspectRatio="xMidYMid meet">
<metadata>
Created by potrace 1.10, written by Peter Selinger 2001-2011
</metadata>
<g transform="translate(0.000000,300.000000) scale(0.100000,-0.100000)"
fill="#000000" stroke="none">
<path d="M1696 2779 c-197 -27 -395 -151 -467 -291 -28 -55 -17 -58 17 -7 49
73 137 153 210 191 91 47 114 54 114 34 0 -10 -9 -16 -22 -16 -52 0 -226 -113
-228 -148 0 -7 -7 -15 -15 -18 -8 -4 -12 -11 -9 -16 4 -5 29 13 58 40 61 60
129 101 228 137 61 23 94 28 203 33 111 4 144 1 215 -17 120 -30 203 -74 277
-145 140 -137 157 -302 44 -450 -21 -28 -63 -69 -94 -91 -54 -39 -68 -55 -47
-55 28 0 127 85 174 150 66 91 77 250 24 357 -38 76 -194 213 -242 213 -9 0
-34 9 -56 20 -22 11 -49 20 -60 20 -12 0 -31 5 -42 11 -27 14 -292 13 -319 -1
-11 -6 -34 -10 -52 -8 l-32 4 30 8 c17 4 37 10 45 14 58 23 410 7 410 -19 0
-5 7 -9 15 -9 38 0 163 -71 216 -121 109 -106 142 -175 140 -295 -1 -75 -31
-170 -67 -213 -40 -48 -77 -86 -99 -101 -12 -8 -41 -27 -64 -43 -58 -39 -51
-54 11 -20 130 71 235 220 245 348 22 264 -248 497 -591 510 -56 2 -132 -1
-170 -6z"/>
<path d="M1480 2534 c-132 -36 -260 -117 -392 -251 -175 -178 -309 -410 -367
-639 -27 -105 -181 -1069 -181 -1132 0 -110 31 -153 167 -232 136 -80 174 -86
265 -42 35 16 281 156 548 310 412 239 494 290 545 341 100 99 169 234 188
367 10 67 8 86 -42 335 -63 319 -59 302 -79 293 -46 -19 -186 -52 -243 -57
-143 -10 -316 23 -424 81 l-50 27 -46 -47 c-58 -61 -69 -61 -58 -4 11 59 31
106 69 161 30 43 96 102 105 93 4 -4 -18 -101 -30 -130 -5 -13 4 -22 44 -42
169 -86 415 -94 601 -20 l37 15 -28 128 c-28 131 -57 203 -105 260 -32 39
-248 168 -312 187 -58 18 -142 17 -212 -2z m211 -36 c19 -6 46 -19 61 -30 14
-10 30 -18 36 -18 20 0 138 -77 177 -117 56 -55 80 -109 105 -234 24 -121 22
-125 -66 -153 -55 -17 -182 -25 -202 -12 -7 4 -12 2 -12 -4 0 -8 -18 -10 -57
-5 -87 9 -103 14 -97 28 3 9 -6 12 -31 12 -20 -1 -38 2 -41 7 -3 4 -12 8 -20
8 -9 0 -22 7 -31 15 -13 14 -13 24 -2 83 7 37 17 70 21 73 4 3 -14 5 -40 4
-64 -1 -108 -37 -163 -133 -31 -55 -44 -88 -47 -128 -3 -36 -1 -54 7 -54 6 0
17 -15 25 -32 8 -18 15 -26 15 -17 1 9 22 34 47 55 l47 38 56 -20 c62 -23 74
-43 44 -78 -10 -12 -1 -4 19 17 33 33 41 36 59 26 37 -20 180 -37 268 -32 48
2 121 13 164 25 44 12 82 17 86 12 14 -16 101 -468 101 -524 0 -72 -21 -148
-65 -238 -61 -122 -156 -210 -335 -309 -30 -16 -154 -88 -275 -158 -627 -365
-596 -348 -656 -353 -46 -3 -63 0 -105 23 -92 50 -169 110 -186 145 -24 46
-23 131 2 284 49 304 82 503 85 526 18 128 60 360 75 421 24 91 95 259 138
323 18 26 32 50 32 53 0 3 21 35 47 72 57 80 200 230 263 275 63 46 177 105
236 121 62 17 170 19 215 3z"/>
<path d="M1335 2274 l-50 -46 53 43 c47 38 58 49 49 49 -1 0 -25 -21 -52 -46z"/>
<path d="M1580 2145 c14 -8 30 -14 35 -14 6 0 -1 6 -15 14 -14 8 -29 14 -35
14 -5 0 1 -6 15 -14z"/>
<path d="M1344 1753 c15 -18 28 -23 65 -21 l46 1 -45 4 c-25 3 -54 12 -65 21
-20 17 -20 17 -1 -5z"/>
<path d="M1910 1682 c-34 -17 -59 -38 -69 -59 -13 -26 -20 -30 -42 -26 -38 7
-59 -27 -59 -96 l0 -55 -27 26 c-43 39 -70 51 -93 38 -31 -16 -40 -43 -40
-117 0 -93 -11 -105 -40 -47 -26 50 -61 80 -84 71 -23 -9 -46 -50 -61 -107 -8
-29 -16 -54 -19 -57 -3 -3 -19 8 -35 26 -33 36 -50 38 -106 12 -58 -26 -103
-67 -110 -101 -6 -25 -9 -28 -25 -20 -41 22 -98 1 -162 -58 -27 -25 -28 -28
-28 -142 0 -169 22 -191 124 -120 23 15 56 42 73 60 19 20 38 30 47 27 25 -10
56 25 63 68 8 57 29 71 58 37 l22 -26 53 25 c38 17 57 34 71 61 27 52 60 72
105 63 27 -5 41 -2 55 11 11 10 27 19 36 20 31 5 55 41 57 86 1 23 5 44 9 46
4 1 24 -10 43 -25 34 -25 38 -26 63 -12 14 8 31 25 36 37 8 17 16 21 33 17 42
-10 148 59 179 119 56 103 56 181 0 227 -31 26 -66 23 -127 -9z m107 -17 c47
-33 35 -135 -23 -203 -29 -34 -110 -92 -128 -92 -3 0 -6 56 -6 124 l0 123 58
31 c66 36 70 37 99 17z m-217 -209 c0 -102 -3 -126 -16 -137 -14 -12 -24 -5
-80 54 l-64 67 0 -94 c0 -96 -5 -126 -21 -126 -5 0 -9 56 -9 124 0 102 3 126
16 137 15 12 24 6 80 -56 l64 -70 0 106 c0 58 3 109 7 112 18 19 23 -4 23
-117z m-276 -158 c24 -51 41 -99 38 -105 -7 -21 -28 -15 -38 12 l-9 25 -52
-31 c-43 -25 -55 -37 -63 -69 -10 -37 -26 -58 -36 -47 -7 6 75 278 88 295 19
23 29 12 72 -80z m-204 -39 c13 -24 5 -66 -16 -90 -13 -14 -13 -18 0 -28 21
-18 30 -69 16 -86 -17 -20 -30 -9 -30 25 0 41 -14 44 -64 15 -43 -25 -45 -29
-48 -77 -2 -30 -8 -53 -15 -56 -10 -3 -13 25 -13 116 0 134 -1 131 84 176 59
31 72 32 86 5z m-232 -121 c16 -16 15 -37 -2 -69 -12 -23 -11 -27 5 -38 45
-28 5 -106 -81 -158 -30 -18 -58 -33 -62 -33 -5 0 -8 56 -8 124 l0 123 58 31
c64 35 73 37 90 20z"/>
<path d="M1923 1619 l-33 -21 0 -94 0 -94 40 26 c66 44 102 122 81 177 -13 33
-43 35 -88 6z m61 -44 c7 -18 -28 -79 -48 -83 -12 -3 -16 5 -16 34 0 57 47 93
64 49z"/>
<path d="M1443 1279 c-11 -35 -19 -65 -18 -67 2 -2 19 7 39 19 39 23 40 32 11
88 -12 23 -13 21 -32 -40z"/>
<path d="M1223 1214 c-40 -24 -43 -28 -43 -69 l0 -45 49 30 c48 30 80 78 66
99 -10 17 -26 13 -72 -15z"/>
<path d="M1003 1089 c-28 -18 -33 -27 -33 -60 l0 -40 44 31 c44 30 63 60 51
80 -9 15 -26 12 -62 -11z"/>
<path d="M1013 987 c-41 -20 -43 -23 -43 -64 l0 -43 28 17 c49 30 82 66 82 90
0 28 -12 28 -67 0z"/>
<path d="M1964 1264 c-146 -78 -208 -125 -199 -152 4 -10 -4 -11 -28 -7 -34 7
-68 -8 -169 -72 -21 -12 -40 -23 -44 -23 -3 0 -18 -8 -32 -19 -15 -10 -56 -34
-92 -54 -36 -19 -117 -65 -180 -102 -63 -37 -131 -76 -150 -87 -107 -60 -130
-80 -130 -108 0 -19 9 -36 26 -49 24 -19 28 -19 62 -5 19 8 57 28 84 44 27 17
52 30 57 30 5 0 11 3 13 8 2 4 21 16 43 28 22 12 96 54 165 94 69 41 136 80
150 87 14 8 43 25 65 38 22 14 60 35 84 47 46 24 91 70 91 94 0 11 4 13 17 6
21 -12 56 -2 119 33 27 15 69 39 94 53 91 50 112 91 68 132 -29 27 -34 26
-114 -16z m101 -21 c0 -18 -24 -36 -120 -91 -66 -38 -125 -67 -132 -65 -18 7
-24 32 -10 44 29 26 233 139 247 136 8 -1 15 -12 15 -24z m-321 -180 c4 -9 3
-20 -2 -25 -20 -20 -737 -428 -753 -428 -22 0 -32 26 -16 41 24 23 733 428
748 428 9 1 20 -7 23 -16z"/>
</g>
</svg>
