<?xml version="1.0" standalone="no"?>
<!DOCTYPE svg PUBLIC "-//W3C//DTD SVG 20010904//EN"
 "http://www.w3.org/TR/2001/REC-SVG-20010904/DTD/svg10.dtd">
<svg version="1.0" xmlns="http://www.w3.org/2000/svg"
 width="300.000000pt" height="300.000000pt" viewBox="0 0 300.000000 300.000000"
 preserveAspectRatio="xMidYMid meet">
<metadata>
Created by potrace 1.10, written by Peter Selinger 2001-2011
</metadata>
<g transform="translate(0.000000,300.000000) scale(0.100000,-0.100000)"
fill="#ffffff" stroke="none">
<path d="M1985 2672 c-52 -27 -146 -62 -260 -97 -93 -29 -286 -101 -360 -135
-11 -5 -56 -18 -100 -30 -44 -12 -89 -25 -100 -30 -188 -79 -265 -110 -278
-110 -9 0 -18 -4 -22 -9 -3 -5 -29 -17 -58 -27 -58 -19 -213 -80 -238 -93 -9
-5 -65 -28 -125 -51 -60 -22 -166 -63 -236 -90 -69 -28 -133 -50 -141 -50 -8
0 -20 -7 -27 -15 -12 -15 0 -22 14 -8 3 4 12 8 19 9 7 1 52 19 102 39 50 20
119 47 155 60 72 25 504 196 705 280 72 29 157 61 190 70 94 26 130 39 285
100 80 32 177 67 215 77 39 11 121 40 183 65 63 24 119 42 126 40 7 -3 30 -56
50 -119 21 -62 52 -141 68 -176 35 -72 30 -104 -19 -116 -74 -18 -327 -101
-399 -132 -45 -18 -106 -40 -136 -48 -30 -8 -95 -28 -144 -45 -49 -18 -168
-58 -264 -91 -96 -32 -233 -82 -305 -110 -71 -28 -163 -60 -204 -71 -115 -31
-141 -44 -140 -71 0 -13 5 -39 12 -58 l12 -35 138 -1 c75 0 137 3 137 8 0 4
-3 7 -7 7 -5 -1 -65 -1 -134 0 l-126 1 -11 39 c-7 21 -12 43 -12 49 0 5 26 18
58 27 135 40 212 66 282 93 194 75 429 157 655 228 44 14 125 43 180 64 55 21
180 63 277 94 212 68 208 63 155 188 -20 46 -50 126 -68 179 -36 110 -54 128
-104 101z"/>
<path d="M1958 2609 c-21 -11 -38 -21 -38 -23 0 -2 14 -9 30 -15 18 -6 30 -6
30 0 0 5 -10 9 -22 9 -20 1 -18 4 12 19 39 21 45 20 53 -10 5 -17 2 -20 -14
-16 -10 3 -19 2 -19 -3 0 -12 39 -19 46 -8 8 13 -16 68 -30 67 -6 -1 -28 -10
-48 -20z"/>
<path d="M2770 2533 c-19 -9 -55 -29 -80 -44 -25 -15 -87 -50 -139 -76 -94
-48 -116 -68 -88 -79 14 -5 65 16 252 107 33 16 77 35 98 43 39 16 51 48 21
60 -21 8 -24 8 -64 -11z m65 -12 c0 -7 -69 -45 -155 -85 -85 -39 -165 -77
-177 -84 -12 -7 -27 -12 -33 -12 -24 0 5 22 78 59 42 22 118 62 167 90 88 50
120 59 120 32z"/>
<path d="M1645 2500 c-56 -20 -64 -40 -22 -51 15 -4 27 -3 27 2 0 5 -9 9 -20
9 -11 0 -20 4 -20 8 0 13 76 35 99 29 24 -6 29 8 5 17 -9 3 -16 6 -17 5 -1 0
-24 -9 -52 -19z"/>
<path d="M1784 2485 c27 -8 63 -16 80 -18 31 -5 107 -27 181 -54 32 -11 45
-23 61 -59 l21 -44 -24 -6 c-13 -4 -29 -2 -36 3 -6 5 -43 22 -82 37 -38 15
-79 32 -90 37 -19 8 -147 51 -207 69 -16 5 -28 6 -28 2 0 -4 42 -20 93 -36 50
-16 146 -51 212 -78 170 -68 194 -65 150 22 -26 51 -54 71 -116 84 -13 3 -53
13 -89 24 -36 10 -90 22 -120 25 l-55 6 49 -14z"/>
<path d="M1291 2371 c-30 -9 -56 -21 -58 -26 -1 -6 59 -30 135 -54 123 -39
200 -65 315 -107 33 -13 44 -12 94 4 31 10 58 23 60 29 2 5 -16 15 -39 22 -24
7 -92 33 -153 56 -98 39 -208 73 -150 46 42 -19 202 -81 250 -96 28 -9 57 -19
65 -22 9 -3 -6 -13 -39 -24 l-53 -19 -67 29 c-36 15 -93 36 -126 45 -33 10
-98 31 -145 46 -47 16 -98 32 -115 35 -29 7 -27 8 25 22 41 10 65 11 95 4 71
-17 85 -19 85 -11 0 4 -21 11 -47 15 -27 4 -55 10 -63 14 -8 5 -39 1 -69 -8z"/>
<path d="M973 2254 c-18 -8 -33 -18 -33 -22 0 -5 24 -20 53 -34 28 -13 84 -41
122 -61 176 -90 236 -111 261 -88 5 5 26 14 47 21 20 6 37 15 37 18 -1 11
-189 98 -240 112 -25 6 -75 25 -112 41 -74 32 -89 34 -135 13z m131 -24 c17
-11 63 -28 101 -38 39 -11 101 -36 139 -56 38 -20 75 -36 82 -36 32 0 10 -18
-41 -34 l-55 -17 -67 31 c-129 59 -302 145 -303 151 0 3 12 10 28 16 33 13 74
7 116 -17z"/>
<path d="M680 2138 c-55 -23 -70 -32 -70 -40 0 -5 5 -6 10 -3 6 3 10 2 10 -3
0 -7 68 -33 100 -37 17 -3 70 -22 182 -67 121 -49 129 -51 167 -39 23 6 41 16
41 20 0 17 -250 131 -371 170 -41 13 -37 13 -69 -1z m53 -4 c3 -4 39 -17 79
-31 40 -13 117 -47 172 -74 55 -27 107 -49 116 -50 8 0 -2 -7 -23 -16 -34 -14
-40 -14 -71 1 -19 9 -38 16 -43 16 -4 0 -19 6 -33 13 -38 20 -128 53 -205 77
-38 11 -77 23 -85 26 -10 3 -1 12 25 24 44 20 58 23 68 14z"/>
<path d="M2889 2036 c-3 -3 -63 -6 -134 -7 -145 -1 -245 -16 -245 -35 0 -6 7
-15 16 -18 23 -9 474 -7 474 2 0 4 -102 6 -227 5 -224 -2 -306 7 -207 22 67
10 116 13 287 15 81 1 147 6 147 11 0 9 -103 13 -111 5z"/>
<path d="M358 2013 c-27 -8 -48 -18 -48 -23 0 -5 23 -1 52 9 50 17 53 17 112
-4 34 -12 117 -49 186 -83 l125 -60 -35 -15 c-29 -13 -37 -13 -50 -2 -18 16
-171 74 -295 111 -49 15 -96 32 -104 38 -11 8 -13 8 -10 -3 3 -7 90 -42 199
-78 107 -35 198 -70 203 -79 9 -15 23 -14 80 8 15 6 27 14 27 18 0 16 -366
184 -390 179 -3 -1 -26 -8 -52 -16z"/>
<path d="M45 1883 c15 -31 56 -136 89 -228 12 -33 25 -66 29 -72 5 -7 5 -18 2
-23 -4 -6 -6 -95 -5 -197 1 -190 5 -210 39 -198 12 5 13 -48 9 -357 -5 -362 0
-520 14 -485 4 10 3 50 -3 90 -6 44 -8 126 -3 212 8 161 7 532 -2 546 -3 6
-11 8 -17 6 -15 -5 -37 335 -25 372 5 13 4 29 0 35 -5 6 -13 29 -16 50 -4 21
-13 48 -20 60 -8 12 -26 55 -41 96 -33 92 -46 120 -56 120 -5 0 -2 -12 6 -27z"/>
<path d="M110 1880 c8 -5 10 -10 3 -10 -12 0 15 -82 33 -99 31 -30 141 -77
179 -76 17 0 20 7 20 48 l0 48 -67 23 c-38 13 -88 36 -112 50 -42 25 -91 39
-56 16z m66 -36 c24 -14 70 -34 102 -43 l57 -17 0 -40 0 -41 -40 9 c-90 20
-172 89 -175 146 0 17 5 16 56 -14z"/>
<path d="M400 1790 c-11 -11 -20 -32 -20 -47 -3 -131 3 -310 9 -316 4 -4 40
-8 80 -9 90 -1 105 10 97 69 -3 23 -10 51 -15 60 -5 10 -17 45 -26 78 -17 58
-51 141 -41 100 14 -60 46 -165 60 -197 20 -48 20 -84 0 -92 -9 -3 -46 -6 -84
-6 l-68 0 -1 164 c-1 148 1 166 18 187 15 18 22 21 31 12 9 -8 7 -13 -10 -18
-28 -9 -24 -49 7 -53 33 -5 49 32 28 64 -19 29 -38 31 -65 4z m60 -41 c-12
-22 -25 -24 -36 -7 -8 12 24 40 38 32 4 -3 3 -14 -2 -25z"/>
<path d="M330 1630 c-8 -4 -24 -12 -35 -17 -12 -6 -35 -14 -53 -18 -60 -13
-35 -26 41 -21 39 2 73 5 75 5 1 1 2 12 2 25 0 29 -9 37 -30 26z m20 -25 c0
-8 -3 -15 -7 -16 -5 0 -28 -2 -53 -4 l-45 -4 45 18 c57 24 60 24 60 6z"/>
<path d="M880 1591 c19 -4 161 -8 315 -9 154 -2 340 -5 413 -7 72 -1 135 1
138 6 3 5 -61 9 -148 10 -84 0 -288 2 -453 3 -165 2 -284 0 -265 -3z"/>
<path d="M2485 1589 c-11 -17 25 -47 79 -65 28 -9 86 -37 130 -61 43 -23 82
-43 86 -43 15 0 31 30 26 47 -7 23 -160 96 -244 117 -75 19 -69 19 -77 5z
m104 -25 c76 -22 211 -91 211 -109 0 -24 -38 -18 -89 13 -47 29 -68 39 -160
75 -55 22 -88 57 -40 43 13 -4 48 -14 78 -22z"/>
<path d="M1776 1577 c8 -5 130 -10 271 -11 l257 -3 6 -24 c3 -13 6 -97 5 -185
0 -142 -2 -164 -18 -182 -17 -18 -19 -40 -19 -209 0 -181 10 -657 15 -697 2
-16 -6 -21 -38 -27 -22 -3 -361 -6 -752 -5 -392 0 -713 -2 -713 -6 0 -13 1478
-10 1501 3 15 8 19 17 15 37 -5 22 -20 528 -20 667 0 116 11 212 27 235 14 21
17 51 17 200 0 126 -4 181 -12 193 -11 14 -46 17 -285 19 -149 2 -265 -1 -257
-5z"/>
<path d="M827 1535 c-3 -7 -32 -31 -64 -53 -32 -22 -74 -59 -93 -82 -19 -23
-57 -56 -85 -72 -27 -16 -69 -44 -92 -63 -23 -18 -47 -35 -54 -37 -7 -2 -9
-10 -5 -16 5 -8 43 -12 121 -11 101 1 115 3 132 21 10 11 45 39 78 61 33 23
105 77 161 122 55 44 114 90 130 101 16 12 27 24 24 27 -3 3 -60 8 -127 11
-97 4 -122 2 -126 -9z m161 -5 l86 0 -50 -34 c-56 -40 -51 -35 -129 -102 -33
-28 -89 -71 -125 -95 -36 -24 -75 -52 -87 -64 -19 -18 -35 -20 -133 -20 -78 0
-106 3 -95 10 9 6 40 27 68 48 28 20 55 37 60 37 5 0 41 31 81 68 39 38 91 84
116 102 25 19 49 41 54 48 5 10 18 12 38 8 17 -3 69 -6 116 -6z"/>
<path d="M1334 1519 c-10 -12 -53 -47 -94 -77 -41 -31 -100 -76 -131 -101 -30
-25 -70 -57 -89 -71 -60 -44 -90 -72 -90 -81 0 -5 51 -9 113 -9 l114 0 74 63
c41 34 134 109 207 165 72 57 132 107 132 111 0 10 -84 21 -161 21 -44 0 -60
-4 -75 -21z m211 1 c13 0 -43 -50 -135 -119 -41 -30 -102 -78 -136 -106 -140
-116 -116 -105 -231 -105 -57 0 -103 1 -103 3 0 2 21 19 48 38 51 37 56 40
122 95 25 20 86 67 135 105 50 37 97 75 105 84 12 15 27 16 100 11 47 -3 90
-6 95 -6z"/>
<path d="M1865 1508 c-16 -12 -32 -25 -35 -28 -3 -3 -39 -32 -80 -64 -41 -33
-82 -67 -90 -75 -27 -30 -92 -76 -149 -106 -31 -16 -55 -34 -54 -38 4 -12 106
-18 192 -11 l74 7 96 91 c53 50 131 118 174 150 78 59 100 81 50 49 -65 -41
-148 -109 -237 -193 l-96 -90 -116 0 c-65 0 -115 2 -113 4 2 2 27 16 54 31 39
21 195 143 225 175 3 3 33 27 66 54 l62 47 101 -3 c64 -2 100 1 98 7 -2 6 -46
11 -98 12 -83 2 -97 0 -124 -19z"/>
<path d="M454 1498 c-9 -28 20 -52 47 -37 22 11 24 30 7 47 -19 19 -46 14 -54
-10z m54 -5 c5 -17 -26 -29 -40 -15 -6 6 -7 15 -3 22 9 14 37 9 43 -7z"/>
<path d="M315 1464 c-22 -15 -57 -43 -77 -62 -37 -35 -38 -38 -38 -104 0 -37
3 -68 8 -68 4 0 45 32 92 72 54 45 84 77 82 87 -2 9 -6 35 -9 59 -3 23 -8 42
-12 42 -3 0 -24 -12 -46 -26z m32 -107 c-12 -10 -48 -41 -79 -68 l-58 -50 0
58 c0 64 10 81 75 128 22 16 47 36 55 44 13 13 16 8 22 -40 6 -48 5 -56 -15
-72z"/>
<path d="M2199 1380 c-64 -47 -56 -41 -141 -109 -38 -30 -68 -58 -68 -62 0 -9
22 -9 108 -2 34 2 62 8 62 13 0 4 -8 6 -17 4 -10 -2 -47 -5 -82 -7 -57 -4 -62
-2 -45 10 10 7 33 24 49 37 44 35 99 77 150 114 l45 33 0 -48 c0 -44 -4 -51
-46 -91 -26 -23 -45 -45 -43 -47 3 -2 26 16 51 41 37 35 48 54 53 89 7 42 2
65 -14 65 -4 0 -32 -18 -62 -40z"/>
<path d="M256 1173 c-18 -5 -18 -12 -12 -122 8 -135 9 -458 1 -471 -5 -9 6
-163 12 -157 6 7 10 522 4 630 -5 82 -3 107 7 107 6 0 12 5 12 10 0 6 -1 9 -2
9 -2 -1 -12 -4 -22 -6z"/>
<path d="M291 1167 c2 -3 116 -7 253 -11 137 -3 252 -8 255 -11 4 -2 13 0 20
4 7 5 -26 11 -76 14 -98 7 -459 10 -452 4z"/>
<path d="M2099 1166 c-16 -16 -1029 -31 -1149 -17 -53 6 -98 7 -103 2 -23 -23
600 -26 1201 -5 l183 7 -3 -92 c-3 -100 5 -122 16 -38 9 79 7 122 -6 135 -11
11 -129 18 -139 8z"/>
<path d="M566 1061 c-63 -4 -101 -10 -103 -18 -5 -13 205 -24 214 -10 2 4 -42
7 -98 7 -56 0 -100 2 -98 4 2 2 51 5 109 7 78 2 104 0 103 -9 -2 -7 2 -12 7
-12 16 0 11 27 -6 34 -9 3 -19 5 -22 4 -4 -1 -52 -4 -106 -7z"/>
<path d="M559 969 c-7 -4 45 -8 116 -8 70 -1 126 1 124 3 -9 8 -228 13 -240 5z"/>
<path d="M1285 968 c-49 -5 -177 -8 -283 -6 -105 2 -192 -1 -192 -5 0 -8 281
-5 886 8 188 4 351 4 363 0 11 -3 21 -12 21 -19 0 -11 -35 -13 -167 -11 -211
4 -313 -3 -313 -21 0 -7 4 -16 10 -19 6 -3 7 1 4 9 -5 13 2 16 37 17 97 4 382
-1 397 -5 32 -10 62 33 38 54 -16 13 -663 12 -801 -2z"/>
<path d="M452 961 c-44 -8 -45 -26 -2 -28 26 -1 29 0 10 5 -20 4 -15 8 30 18
57 12 25 17 -38 5z"/>
<path d="M2220 943 c0 -13 5 -23 10 -23 13 0 13 11 0 30 -8 12 -10 11 -10 -7z"/>
<path d="M500 943 c0 -5 36 -8 79 -8 44 0 77 3 74 8 -2 4 -38 7 -79 7 -41 0
-74 -3 -74 -7z"/>
<path d="M738 933 l72 -4 0 -62 c0 -34 -3 -98 -6 -143 l-7 -81 -154 4 c-120 2
-160 0 -181 -11 -20 -11 -23 -16 -12 -19 32 -11 70 -14 70 -6 0 5 -14 9 -32 9
-17 0 -29 3 -25 6 3 4 84 7 179 8 l173 1 0 150 0 150 -75 1 -75 1 73 -4z"/>
<path d="M842 776 l3 -151 325 0 325 -1 -320 6 c-176 3 -321 7 -323 8 -2 1 -2
64 0 140 l3 137 362 0 c198 0 359 3 357 7 -3 4 -169 7 -370 6 l-365 -2 3 -150z"/>
<path d="M2224 903 c9 -16 12 -600 4 -609 -4 -3 -218 -8 -475 -10 l-468 -3 1
42 c1 29 0 32 -3 10 -2 -17 -10 -36 -17 -42 -8 -7 -97 -12 -232 -14 -120 -1
103 -2 496 -2 l715 0 0 307 c0 250 -3 309 -14 320 -9 9 -12 9 -7 1z"/>
<path d="M1570 895 c-3 -5 -3 -59 0 -120 5 -101 6 -106 14 -62 8 47 -4 203
-14 182z"/>
<path d="M1609 866 c-2 -10 -3 -72 -1 -138 l3 -119 215 2 c210 1 246 -3 230
-30 -9 -14 -428 -15 -531 -1 -38 5 -72 7 -74 4 -15 -15 41 -19 302 -22 266 -4
294 -3 307 13 10 12 11 21 4 32 -9 14 -40 16 -228 14 l-217 -2 4 83 c4 84 -5
199 -14 164z"/>
<path d="M622 863 c-12 -2 -20 -8 -17 -13 3 -4 -6 -10 -20 -12 -28 -6 -35 8
-7 16 9 2 2 4 -17 3 -21 -1 -36 -8 -38 -17 -4 -13 -3 -13 6 0 9 13 11 12 11
-3 0 -16 9 -17 83 -15 61 3 82 7 82 17 0 8 -11 18 -25 22 -24 9 -24 8 -6 -6
19 -14 17 -15 -20 -14 -21 1 -31 3 -21 6 9 2 17 9 17 14 0 5 -1 8 -2 8 -2 -1
-13 -4 -26 -6z"/>
<path d="M1130 841 c-17 -12 -14 -16 20 -26 22 -7 23 -6 11 9 -12 15 -6 16 77
16 145 0 178 -14 47 -21 l-110 -5 113 -2 c103 -2 113 0 110 16 -3 15 -18 17
-128 20 -69 1 -132 -2 -140 -7z"/>
<path d="M1855 840 c-26 -5 -14 -6 35 -3 57 3 72 1 63 -8 -7 -7 -39 -10 -92
-8 -45 2 -81 1 -81 -3 0 -11 162 -10 179 1 7 5 10 14 7 20 -8 12 -48 12 -111
1z"/>
<path d="M1147 743 c-18 -17 -1 -23 67 -23 79 0 109 6 100 21 -6 10 -157 12
-167 2z m111 -10 c-21 -2 -55 -2 -75 0 -21 2 -4 4 37 4 41 0 58 -2 38 -4z"/>
<path d="M1844 731 c19 -7 19 -8 -2 -13 -11 -3 -23 -2 -26 3 -2 5 -3 4 -2 -3
3 -14 75 -23 113 -13 13 3 23 12 23 20 0 12 -14 15 -62 14 -40 0 -56 -3 -44
-8z m84 -8 c-10 -2 -26 -2 -35 0 -10 3 -2 5 17 5 19 0 27 -2 18 -5z"/>
<path d="M1560 641 c0 -21 -3 -23 -30 -17 -19 3 -29 2 -25 -4 3 -6 19 -10 35
-10 30 0 48 26 30 44 -7 7 -10 3 -10 -13z"/>
<path d="M537 608 c-6 -4 39 -8 101 -10 62 -2 112 0 112 4 0 9 -199 15 -213 6z"/>
<path d="M785 591 c17 -4 160 -9 320 -10 159 -1 300 -4 312 -7 14 -4 23 -2 23
5 0 7 -44 11 -137 11 -76 0 -230 2 -343 5 -113 2 -191 1 -175 -4z"/>
<path d="M143 574 c-6 -15 5 -235 12 -242 14 -14 25 18 23 71 l-1 62 -6 -65
c-6 -64 -6 -64 -14 46 -4 60 -5 118 -1 127 3 9 3 17 0 17 -4 0 -9 -7 -13 -16z"/>
<path d="M160 515 c0 -19 4 -35 8 -35 4 0 6 16 4 35 -2 19 -6 35 -8 35 -2 0
-4 -16 -4 -35z"/>
<path d="M560 520 c-14 -4 -44 -8 -67 -9 -31 -1 -43 -5 -43 -16 0 -8 6 -15 13
-16 63 -5 427 -2 427 4 0 4 -40 7 -90 8 -49 0 -109 1 -132 2 -24 0 -74 -3
-113 -6 -38 -4 -76 -3 -83 1 -22 15 187 33 308 28 63 -3 160 -8 215 -10 l100
-5 -115 13 c-136 14 -384 18 -420 6z"/>
<path d="M90 463 c0 -55 13 -86 24 -58 3 10 1 24 -5 31 -6 8 -7 14 -2 14 5 0
8 14 5 30 -7 47 -22 35 -22 -17z"/>
<path d="M1100 499 c0 -13 162 -19 558 -20 343 0 412 -2 412 -14 0 -8 -3 -16
-7 -18 -5 -3 -183 0 -397 5 -214 5 -392 5 -397 1 -4 -4 -4 -24 1 -43 l8 -35 1
38 1 37 138 -6 c318 -13 614 -18 637 -11 14 5 25 16 25 27 0 24 -25 44 -44 33
-12 -7 -382 -3 -824 9 -61 2 -112 0 -112 -3z"/>
<path d="M918 473 c12 -2 32 -2 45 0 12 2 2 4 -23 4 -25 0 -35 -2 -22 -4z"/>
<path d="M995 472 c11 -12 121 -19 132 -9 3 4 -5 7 -19 7 -14 0 -47 3 -74 6
-34 5 -46 3 -39 -4z"/>
<path d="M1144 459 c-3 -5 18 -9 45 -9 l51 0 0 -80 c0 -44 4 -80 8 -80 7 0 5
161 -2 166 -8 7 -98 9 -102 3z"/>
<path d="M263 345 l2 -70 95 4 c52 2 101 6 107 10 7 3 -35 5 -94 3 -60 -3
-103 -1 -100 5 3 4 2 33 -3 63 l-8 55 1 -70z"/>
<path d="M210 286 c0 -9 5 -16 10 -16 6 0 10 4 10 9 0 6 -4 13 -10 16 -5 3
-10 -1 -10 -9z"/>
<path d="M490 294 c0 -5 38 -8 85 -6 47 2 117 -1 157 -8 65 -10 90 -8 76 5
-10 10 -318 19 -318 9z"/>
<path d="M219 248 c9 -10 80 -13 286 -13 172 0 261 3 237 8 -20 5 -141 6 -269
2 -158 -4 -233 -3 -238 4 -3 6 -11 11 -18 11 -8 0 -7 -4 2 -12z"/>
</g>
</svg>
