<?xml version="1.0" standalone="no"?>
<!DOCTYPE svg PUBLIC "-//W3C//DTD SVG 20010904//EN"
 "http://www.w3.org/TR/2001/REC-SVG-20010904/DTD/svg10.dtd">
<svg version="1.0" xmlns="http://www.w3.org/2000/svg"
 width="300.000000pt" height="300.000000pt" viewBox="0 0 300.000000 300.000000"
 preserveAspectRatio="xMidYMid meet">
<metadata>
Created by potrace 1.10, written by Peter Selinger 2001-2011
</metadata>
<g transform="translate(0.000000,300.000000) scale(0.100000,-0.100000)"
fill="#ffffff" stroke="none">
<path d="M1690 2791 c-196 -29 -382 -143 -466 -286 -21 -36 -24 -49 -15 -58
10 -9 19 -5 41 20 16 18 35 30 42 28 7 -3 43 19 79 49 72 60 174 115 258 140
74 22 306 22 382 1 149 -43 274 -134 334 -245 25 -47 29 -66 29 -130 0 -64 -4
-84 -31 -137 -40 -77 -54 -94 -125 -150 -53 -40 -74 -73 -48 -73 6 0 3 -11 -7
-24 -13 -17 -40 -30 -93 -44 -175 -47 -228 -51 -375 -27 -98 15 -149 31 -227
71 l-51 26 -48 -48 c-27 -27 -49 -44 -49 -38 0 21 33 109 46 125 8 8 14 20 14
26 0 13 81 105 87 99 3 -2 -3 -29 -13 -60 -21 -66 -15 -78 61 -111 107 -48
163 -58 310 -58 117 0 152 4 213 23 40 12 82 30 94 40 24 19 26 1 -22 187 -41
163 -73 213 -183 286 -135 90 -222 129 -299 135 -126 9 -249 -31 -381 -123
-76 -53 -246 -220 -290 -285 -16 -25 -38 -54 -48 -65 -22 -26 -80 -129 -125
-224 -42 -89 -86 -240 -109 -376 -9 -55 -23 -136 -30 -180 -8 -44 -20 -123
-29 -175 -8 -52 -22 -142 -31 -200 -9 -58 -23 -144 -32 -192 -8 -48 -16 -141
-17 -207 -1 -107 1 -122 20 -148 31 -42 109 -99 199 -144 72 -37 85 -40 136
-36 63 5 63 5 474 240 699 400 755 442 844 632 49 104 66 185 57 278 -6 68
-86 485 -100 517 -4 11 11 25 54 49 79 46 160 130 207 216 36 68 38 73 38 170
0 87 -3 107 -26 155 -68 144 -215 259 -400 314 -65 19 -268 29 -349 17z m241
-11 c30 -5 67 -12 82 -14 140 -24 301 -129 383 -249 32 -48 64 -150 64 -208 0
-57 -24 -141 -57 -198 -34 -58 -116 -141 -175 -175 -58 -34 -88 -29 -36 5 43
27 51 44 13 27 -39 -18 -42 -1 -5 30 115 92 157 149 185 245 29 102 -6 197
-112 304 -136 138 -332 195 -565 164 -76 -11 -111 -22 -193 -62 -59 -28 -120
-67 -148 -94 -27 -25 -56 -45 -64 -45 -17 0 -19 -3 47 75 l25 30 -34 -30 c-18
-16 -52 -55 -74 -85 -32 -42 -42 -51 -45 -37 -8 42 111 169 210 224 152 84
346 121 499 93z m-190 -261 c30 -14 100 -54 156 -89 136 -85 152 -111 212
-340 15 -58 25 -112 24 -120 -5 -21 -81 -46 -199 -66 -105 -18 -186 -13 -334
20 -19 5 -59 20 -89 34 l-53 26 6 41 c3 22 8 55 12 73 9 43 -7 41 -54 -7 -44
-45 -98 -148 -108 -203 -8 -50 5 -49 61 3 l45 42 68 -31 c37 -17 103 -40 147
-51 135 -35 366 -19 485 32 34 15 35 14 36 -6 1 -12 23 -125 49 -252 59 -289
61 -370 17 -492 -30 -80 -86 -174 -139 -231 -45 -47 -287 -203 -518 -332 -22
-12 -69 -39 -105 -60 -585 -336 -562 -328 -699 -261 -168 82 -221 141 -221
245 0 43 16 167 42 321 6 39 13 83 14 99 1 17 9 68 17 115 9 48 23 131 32 186
84 525 121 638 278 870 53 77 230 268 292 316 61 45 158 97 229 122 107 36
212 35 297 -4z"/>
<path d="M1673 2748 c-2 -5 2 -8 9 -8 196 -3 311 -9 341 -17 28 -8 37 -8 34 0
-2 6 -17 15 -34 19 -41 11 -344 15 -350 6z"/>
<path d="M1625 2734 l-30 -14 30 6 c31 6 41 11 34 18 -2 2 -17 -2 -34 -10z"/>
<path d="M1498 2689 c-32 -16 -58 -31 -58 -33 0 -2 29 8 65 22 36 14 65 29 65
34 0 13 -11 9 -72 -23z"/>
<path d="M2070 2712 c0 -9 59 -32 81 -32 8 0 -6 9 -30 20 -49 23 -51 23 -51
12z"/>
<path d="M2170 2676 c0 -2 8 -10 18 -17 15 -13 16 -12 3 4 -13 16 -21 21 -21
13z"/>
<path d="M1400 2629 c-22 -18 -22 -19 -3 -10 12 6 25 16 28 21 9 15 3 12 -25
-11z"/>
<path d="M2301 2564 c63 -67 79 -90 95 -142 19 -61 41 -88 28 -34 -18 74 -120
213 -178 244 -12 6 13 -25 55 -68z"/>
<path d="M2409 2298 c-1 -29 -1 -56 0 -61 1 -4 -10 -35 -24 -68 -18 -45 -41
-77 -86 -121 -34 -32 -58 -62 -55 -66 4 -3 35 23 69 59 44 46 70 84 86 125 25
66 39 184 22 184 -6 0 -12 -22 -12 -52z"/>
<path d="M1515 2503 c-52 -13 -156 -60 -215 -95 -83 -50 -278 -247 -345 -348
-138 -209 -197 -377 -250 -715 -9 -55 -21 -124 -27 -154 -6 -30 -12 -73 -14
-95 -2 -23 -10 -77 -18 -121 -8 -44 -22 -127 -31 -185 -9 -58 -20 -129 -26
-159 -30 -174 1 -237 162 -331 76 -45 107 -54 152 -46 31 6 261 129 412 221
39 23 151 88 250 145 395 226 464 272 525 356 68 92 130 245 130 323 0 56 -56
361 -91 494 l-10 39 -53 -6 c-29 -3 -65 -10 -81 -16 -47 -18 -259 -14 -338 6
-62 15 -69 15 -86 0 -19 -17 -32 -21 -30 -8 4 23 -5 33 -38 47 -71 30 -76 29
-124 -19 l-46 -45 -22 30 c-38 52 -16 144 62 258 32 47 91 80 143 81 l32 0
-13 -37 c-36 -109 -28 -131 59 -152 26 -7 55 -18 63 -26 17 -17 46 -19 193
-15 124 3 225 29 235 60 16 51 -31 233 -78 297 -41 57 -122 117 -232 172 -76
38 -99 45 -160 47 -38 2 -79 0 -90 -3z m265 -65 c188 -97 233 -153 274 -334
24 -107 23 -112 -30 -135 -39 -16 -73 -20 -206 -22 -143 -2 -160 0 -169 16 -6
9 -22 17 -36 17 -15 0 -42 5 -60 12 l-34 12 6 56 c10 84 13 91 36 80 10 -6 28
-14 38 -20 24 -12 49 12 29 27 -24 18 -67 32 -72 24 -3 -4 -18 -6 -34 -3 -83
12 -158 -46 -218 -169 -44 -90 -51 -138 -24 -169 12 -14 29 -38 37 -55 9 -16
23 -35 32 -42 19 -15 107 -17 116 -3 7 11 -3 16 -56 24 -19 4 -44 13 -55 20
-18 14 -17 16 24 54 47 43 60 44 119 9 28 -16 31 -21 20 -37 -19 -31 0 -34 34
-6 20 17 38 25 48 20 29 -12 175 -34 231 -34 48 0 142 14 247 36 30 6 32 4 42
-32 5 -22 17 -75 25 -119 9 -44 23 -113 31 -153 9 -41 18 -115 22 -166 7 -110
-8 -173 -68 -286 -47 -86 -101 -147 -179 -198 -67 -44 -280 -172 -287 -172 -4
0 -249 -143 -428 -250 -67 -40 -163 -93 -285 -157 -40 -21 -123 -16 -167 9
-79 46 -160 108 -171 133 -16 36 -15 183 2 280 8 44 22 127 31 185 9 58 23
143 30 190 8 47 21 130 30 185 16 103 39 232 57 320 34 172 147 409 261 550
61 76 167 182 217 220 25 18 88 55 140 81 85 43 104 49 180 54 94 6 119 0 220
-52z m-165 -300 c7 -7 2 -8 -15 -3 -14 4 -29 12 -35 17 -7 7 -2 8 15 3 14 -4
30 -12 35 -17z m-259 -378 c6 -6 30 -14 55 -19 l44 -9 -46 -1 c-34 -1 -51 4
-64 19 -18 20 -8 29 11 10z"/>
<path d="M1325 2284 c-41 -37 -56 -57 -49 -64 7 -7 28 6 70 44 39 36 56 58 49
64 -7 7 -30 -8 -70 -44z m49 15 c-10 -12 -37 -35 -59 -51 -34 -26 -32 -23 13
21 52 50 83 71 46 30z"/>
<path d="M1932 1709 c-19 -6 -54 -30 -78 -54 -27 -28 -54 -45 -68 -45 -33 0
-48 -23 -54 -80 l-4 -49 -38 25 c-75 50 -125 8 -125 -105 l0 -68 -19 31 c-17
29 -64 75 -77 76 -3 0 -18 -10 -32 -22 -28 -25 -57 -84 -57 -118 0 -25 -11
-25 -43 0 -14 11 -37 20 -51 20 -54 0 -156 -72 -171 -120 -5 -16 -10 -18 -31
-9 -34 12 -96 -15 -146 -65 l-38 -37 0 -122 c0 -133 11 -167 53 -167 29 0 115
50 151 89 17 17 39 31 51 31 29 0 63 39 76 84 11 40 30 46 50 15 l14 -21 54
28 c29 15 65 44 79 63 38 53 51 61 98 61 45 0 128 40 143 69 5 9 12 33 16 54
l7 37 28 -20 c39 -28 63 -25 98 10 17 17 41 30 54 30 34 0 123 54 152 93 28
37 55 95 66 145 11 44 -7 98 -43 128 -30 25 -60 29 -115 13z m93 -7 c6 -4 20
-20 32 -35 42 -54 11 -188 -59 -253 -41 -39 -89 -64 -122 -64 -16 0 -36 -12
-53 -30 -29 -34 -81 -41 -103 -15 -18 21 -40 19 -40 -5 0 -69 -68 -130 -146
-130 -48 0 -87 -25 -113 -71 -15 -26 -37 -45 -72 -62 l-51 -24 -25 25 c-28 28
-36 23 -53 -33 -16 -50 -37 -75 -65 -75 -11 0 -44 -19 -71 -43 -27 -23 -69
-51 -92 -61 -40 -18 -44 -18 -60 -2 -14 13 -18 40 -20 134 -4 115 -3 119 22
149 37 44 106 76 148 68 30 -6 34 -3 44 23 14 35 82 87 135 104 35 10 41 9 73
-16 19 -14 37 -26 40 -26 2 0 12 24 20 53 18 63 50 107 77 107 11 0 33 -20 55
-50 20 -27 39 -50 44 -50 4 0 9 36 12 79 3 44 10 87 18 95 19 24 62 19 101 -9
l34 -26 5 53 c6 64 14 78 43 78 27 0 38 8 59 41 31 48 150 95 183 71z"/>
<path d="M1917 1647 l-57 -32 4 -113 c2 -62 6 -116 9 -118 8 -9 60 22 95 57
46 46 72 100 72 153 0 36 -5 48 -26 65 -15 12 -29 21 -33 20 -3 0 -32 -15 -64
-32z m101 1 c13 -17 0 -104 -21 -144 -9 -18 -36 -47 -59 -65 -24 -18 -45 -37
-48 -40 -3 -4 -4 43 -4 104 1 96 0 103 -6 47 l-7 -65 1 65 c1 57 3 65 20 62
10 -2 15 1 11 7 -4 7 0 8 11 4 12 -4 15 -3 10 5 -5 8 -1 10 10 5 11 -4 15 -3
10 5 -7 11 40 1 66 -14 10 -6 10 -4 0 8 -8 9 -23 19 -35 21 -19 4 -18 4 4 6
15 0 31 -5 37 -11z"/>
<path d="M1936 1568 c-20 -29 -21 -68 -1 -68 15 0 45 49 45 75 0 22 -27 18
-44 -7z m34 2 c0 -18 -23 -59 -31 -54 -10 6 10 64 22 64 5 0 9 -4 9 -10z"/>
<path d="M1775 1469 l-7 -113 -58 62 c-31 34 -62 62 -68 62 -6 0 -16 -9 -22
-19 -11 -22 -12 -196 -1 -225 7 -18 8 -18 14 5 4 13 7 64 7 113 l0 89 58 -61
c54 -58 91 -78 93 -49 2 53 -1 240 -4 244 -3 2 -8 -46 -12 -108z m-70 -59 c32
-32 62 -57 67 -54 4 3 8 -2 8 -10 0 -26 -13 -19 -75 44 -33 33 -63 60 -67 60
-4 0 -9 -44 -10 -97 l-2 -98 -3 85 c-4 86 1 130 15 130 4 0 34 -27 67 -60z"/>
<path d="M1450 1365 c-23 -58 -69 -214 -74 -252 l-6 -38 18 36 c24 50 40 67
86 97 38 23 40 24 53 6 7 -10 13 -22 13 -28 0 -6 4 -6 11 1 12 12 -39 147 -71
186 l-18 22 -12 -30z m59 -70 c35 -75 37 -83 16 -65 -12 10 -19 10 -27 2 -7
-7 -16 -12 -21 -12 -5 0 1 8 13 18 21 17 22 21 9 56 -8 21 -20 41 -26 43 -7 3
-13 12 -13 20 0 26 17 5 49 -62z m-24 5 c21 -40 19 -45 -14 -67 -16 -10 -30
-21 -30 -25 -1 -5 -10 -17 -21 -28 -20 -20 -20 -20 -20 0 0 14 7 20 22 20 21
0 21 0 2 16 -10 8 -14 13 -8 10 7 -3 14 6 17 22 7 35 25 82 31 82 3 0 12 -13
21 -30z"/>
<path d="M1233 1248 c-36 -18 -66 -41 -72 -55 -14 -30 -15 -210 -1 -218 6 -3
10 2 10 12 0 52 22 93 59 112 38 20 54 18 64 -9 4 -12 6 -12 6 2 1 9 -8 23
-20 31 -14 10 -17 17 -9 22 13 8 39 -22 40 -47 0 -9 -5 -20 -10 -23 -12 -7 -4
-25 11 -25 14 0 11 64 -5 85 -11 15 -11 22 0 44 17 33 18 75 1 89 -9 8 -29 2
-74 -20z m77 3 c0 -5 -9 -7 -20 -4 -11 3 -20 7 -20 9 0 2 9 4 20 4 11 0 20 -4
20 -9z m-46 -8 c4 -5 13 -8 19 -8 24 0 17 -34 -13 -69 -17 -19 -31 -39 -31
-43 0 -4 -6 -7 -14 -5 -7 1 -16 -2 -20 -8 -23 -36 -36 39 -14 83 10 21 10 21
-5 3 -16 -20 -22 -102 -8 -108 4 -1 2 -19 -5 -38 -11 -33 -12 -31 -12 45 -1
58 3 87 15 103 8 12 19 20 24 17 5 -3 22 1 37 10 16 9 20 14 10 11 -11 -3 -15
-2 -12 4 7 12 19 13 29 3z"/>
<path d="M1004 1116 l-59 -31 -3 -117 c-2 -81 1 -118 8 -118 36 0 123 70 145
116 16 34 16 37 -1 55 -15 16 -16 25 -6 55 22 71 -3 83 -84 40z m86 -6 c0 -5
-11 -3 -24 3 -16 8 -20 14 -13 19 12 7 37 -8 37 -22z m-20 -23 c0 -19 -74 -97
-92 -97 -12 0 -10 57 3 83 10 21 9 21 -5 3 -12 -15 -15 -42 -13 -118 1 -54 -1
-98 -5 -98 -5 0 -8 49 -8 110 0 94 2 111 18 118 9 5 23 7 31 4 8 -3 11 0 7 7
-5 7 -1 9 10 4 11 -4 15 -2 11 4 -4 6 3 8 18 5 17 -3 25 -11 25 -25z m12 -64
c10 -9 18 -21 18 -26 0 -6 -6 -3 -14 8 -9 12 -20 16 -35 12 -18 -4 -20 -3 -10
9 15 18 18 18 41 -3z m-2 -37 c0 -13 -7 -29 -15 -36 -8 -7 -12 -17 -8 -24 3
-6 3 -8 -2 -4 -5 5 -23 -3 -41 -17 -18 -14 -35 -25 -38 -25 -3 0 -6 18 -6 39
0 30 6 44 25 59 13 11 23 21 21 23 -2 2 11 5 30 6 29 1 34 -2 34 -21z"/>
<path d="M1926 1257 c-55 -29 -118 -70 -140 -93 -24 -24 -54 -43 -74 -47 -51
-10 -709 -382 -759 -429 -33 -31 -30 -70 8 -102 22 -19 38 -25 53 -20 28 8
376 204 541 305 22 13 66 38 99 54 57 29 136 96 136 115 0 6 16 10 36 10 35 0
105 33 212 99 54 34 72 56 72 89 0 29 -38 72 -63 72 -12 0 -67 -24 -121 -53z
m164 14 c18 -34 11 -59 -25 -89 -53 -43 -208 -122 -241 -122 -21 0 -37 -10
-57 -35 -15 -19 -71 -60 -125 -91 -92 -53 -167 -97 -361 -210 -46 -27 -128
-73 -183 -103 l-100 -53 -27 19 c-34 26 -38 59 -10 89 12 13 68 50 123 83 56
32 171 99 256 149 212 125 364 202 399 202 20 0 30 6 34 19 6 23 69 71 165
123 77 43 135 50 152 19z"/>
<path d="M1945 1212 c-116 -62 -145 -81 -145 -98 0 -27 22 -24 100 17 100 52
160 95 160 114 0 23 -18 18 -115 -33z m105 29 c0 -9 -55 -45 -172 -110 -67
-38 -89 -25 -26 15 57 36 181 104 191 104 4 0 7 -4 7 -9z"/>
<path d="M1565 991 c-88 -48 -212 -119 -275 -156 -63 -37 -128 -75 -145 -83
-16 -9 -55 -31 -85 -50 -30 -19 -65 -41 -78 -49 -18 -11 -21 -17 -12 -28 14
-17 70 9 259 119 62 36 116 66 118 66 3 0 50 27 105 60 54 33 102 60 106 60 4
0 37 20 73 43 36 24 73 46 83 50 20 8 32 35 20 47 -5 5 -77 -29 -169 -79z
m165 62 c0 -9 10 -3 -320 -193 -348 -199 -433 -245 -428 -229 4 11 222 149
236 149 2 0 48 27 103 60 54 33 101 60 103 60 3 0 43 22 88 49 97 57 200 111
211 111 4 0 7 -3 7 -7z"/>
</g>
</svg>
